<?xml version="1.0" encoding="UTF-8"?>
<svg xmlns="http://www.w3.org/2000/svg" viewBox="0 0 923 1300" width="923" height="1300">
<path d="M781.5 901.31C782.11 896.12 781.45 890.76 781.47 885.5C781.5 873.49 781.11 861.51 780.91 849.5C780.39 817.86 780.58 786.14 780.78 754.5C781.18 688.83 780.64 623.17 780.7 557.5C780.74 513.18 781.82 468.81 780.92 424.5C780.65 411.16 781.26 397.83 781.3 384.5C781.4 354.17 781.22 323.82 781.07 293.5C781.01 282.18 780.97 270.81 781.25 259.5C781.37 254.78 782.78 248.7 780.9 244.5C776.4 245.64 773.5 249.66 770.4 252.89C764.35 259.19 758.17 265.32 751.97 271.47C726.89 296.36 701.95 321.48 677.33 346.83C639.74 385.53 601.03 423.24 563.12 461.63C513.28 512.11 463.92 563.1 413.39 612.89C401.82 624.29 390.23 635.77 378.94 647.44C357.28 669.84 340.41 690.23 306.5 690.02C300.69 689.99 295.15 689.43 289.56 687.83C282.6 685.84 276.29 683.21 270.09 679.44C261.93 674.49 254.16 666.49 249.18 658.31C236.11 636.85 235.15 611.12 247.62 589.09C255.85 574.54 269.23 563.12 281.05 551.54C292.17 540.66 302.87 529.37 313.77 518.27C320.04 511.89 326.71 505.84 332.78 499.27C344.42 486.64 356.94 474.73 369.1 462.6C399.29 432.5 429.58 402.36 459.17 371.67C503.18 326.03 548.92 282.08 593.03 236.52C633.83 194.37 675.42 152.89 717.14 111.64C738.93 90.09 760.35 68.17 781.89 46.38C793.88 34.24 805.15 20.24 820.12 11.61C842.32 -1.2 872.67 -0.2 892.47 17.02C898.27 22.05 904.52 28.29 908.71 34.76C921.74 54.86 918.16 87.53 918.03 110.5C917.84 143.16 918.5 175.84 918.55 208.49C918.57 220.83 918.03 233.16 918.08 245.5C918.39 342.16 918.22 438.82 918.17 535.5C918.14 598.46 916.71 661.56 918.17 724.5C919.43 778.47 916.99 832.52 918.09 886.5C918.45 904.16 917.73 921.83 917.82 939.5C918.01 977.17 918.29 1014.84 917.91 1052.5C917.79 1064.34 919.05 1076.8 916.91 1088.5C913.33 1108.14 900.69 1125.17 882.73 1134.26C862.65 1144.42 836.23 1142.96 817.08 1131.42C808.8 1126.43 802.46 1119.56 795.65 1112.85C788.09 1105.4 780.54 1097.96 773.1 1090.4C747.66 1064.51 721.61 1039.22 696.12 1013.39C687.01 1004.16 677.53 995.29 668.29 986.2C657.94 976.03 647.47 966.62 641.45 953.09C623.76 913.27 648.94 869.76 689.51 858.95C691.81 858.34 694.15 858.37 696.5 858.09C718.92 855.45 736.31 861.33 752.98 876.51C759.76 882.68 766.29 889.24 772.86 895.64C775.2 897.92 778.05 901.41 781.5 901.31ZM141.5 398C139.57 403.29 140.8 410.72 140.74 416.5C140.57 430.16 140.67 443.85 140.39 457.5C139.47 503.44 139.97 549.56 140.41 595.5C140.75 631.49 140.04 667.5 140.16 703.5C140.38 774.17 140.46 844.83 140.35 915.5C140.31 944.82 140.67 974.18 140.23 1003.5C140.05 1015.5 139.97 1027.5 140.14 1039.5C140.22 1044.42 139.77 1049.67 140.6 1054.5C144.51 1054.24 146.99 1050.98 149.73 1048.23C155.54 1042.38 161.45 1036.6 167.33 1030.82C190.99 1007.55 214.09 983.54 237.38 959.87C290.12 906.28 343.34 853.19 396.56 800.06C419.07 777.6 441.73 755.21 464.05 732.55C479.1 717.27 493.76 701.57 509.17 686.66C521.36 674.88 533.34 662.8 545.06 650.56C566.08 628.62 582.58 609 615.5 609.24C621.64 609.28 627.77 610.1 633.71 611.66C641.39 613.69 648.66 617.69 654.92 622.56C662.09 628.13 668.91 635.05 673.61 642.87C677.42 649.18 680 656.2 681.28 663.45C682.2 668.7 683.81 673.96 683.55 679.36C682.04 710.76 662.51 726.99 642.12 747.62C623.06 766.9 604.02 786.18 584.78 805.28C559.03 830.86 534.04 857.22 508.39 882.89C458.9 932.4 409.8 982.32 360.09 1031.59C323.93 1067.44 288.18 1103.68 252.53 1140.04C235.06 1157.87 216.79 1175.01 199.85 1193.32C190.41 1203.53 180.18 1213.01 170.43 1222.92C160.5 1233.01 150.6 1243.08 140.56 1253.05C117.15 1276.3 100.15 1297.34 63.5 1294.9C57.36 1294.49 50.88 1292.64 45.19 1290.37C38.65 1287.76 32.07 1284.44 26.68 1279.85C2.23 1258.98 5.07 1235.68 4.37 1206.5C3.18 1156.87 5.5 1107.14 4.37 1057.5C4.08 1044.85 4.56 1032.16 4.45 1019.5C4.01 970.5 4.6 921.5 4.42 872.5C3.84 716.82 4.23 561.18 4.16 405.5C4.13 354.85 3.83 304.15 4.19 253.5C4.29 239.56 2.51 221.06 5.37 207.73C10 186.23 27.44 169.23 47.5 161.96C50.37 160.92 53.53 160.76 56.5 160.06C89.24 152.4 111.73 171.73 132.91 193.59C153.42 214.74 174.65 235.17 195.56 255.94C209.07 269.35 221.95 283.6 236.13 296.34C241.55 301.21 246.55 306.61 251.77 311.72C264.49 324.14 277.67 336.2 282.53 353.92C285.62 365.19 286.43 378.89 283.65 390.27C274.36 428.35 232.61 450.87 195.5 439.01C183.18 435.07 173.29 428.42 164.29 419.22C157.82 412.6 149.61 402.19 141.5 398Z" fill="#CEAB8D" fill-rule="evenodd" stroke="#CEAB8D" stroke-width="0.25" stroke-linejoin="round"/>
</svg>