<?xml version="1.0" encoding="UTF-8"?>
<svg xmlns="http://www.w3.org/2000/svg" viewBox="-8 -8 238 330" width="238" height="330">
<path d="M188.5 216.59C189.37 205.06 188.37 193.08 188.37 181.5C188.38 155.5 188.26 129.5 188.41 103.5C188.47 93.5 188.42 83.5 188.39 73.5C188.38 69.29 189.55 63.58 187.5 59.96C177.43 68.31 168.62 78.64 159.48 87.99C139.55 108.38 119.33 128.52 99.13 148.63C90.29 157.44 79.43 173.11 65.27 164.24C63.32 163.02 61.45 161.24 60.18 159.31C57.38 155.08 56.84 148.88 58.65 144.18C61.74 136.16 76.53 123.99 82.98 117.48C113.67 86.5 144.54 55.71 175.14 24.65C184.39 15.27 198.57 -5.28 213.47 2.98C220.71 6.99 221.88 14.97 221.94 22.5C222.04 33.83 221.93 45.17 221.93 56.5C221.92 109.17 221.85 161.83 221.93 214.5C221.95 227.5 222.04 240.5 221.94 253.5C221.88 261.23 221.31 269.22 213.8 273.33C209.04 275.94 202.77 276.07 197.92 273.55C193.2 271.09 189.54 266.4 185.81 262.69C179.13 256.04 172.49 249.34 165.73 242.76C161.7 238.83 156.26 234.57 154.49 229.03C150.63 216.92 160.31 205.82 172.58 207.23C180.23 208.11 182.43 214.84 188.5 216.59ZM0.17 292.97C0.17 284.94 0.17 276.92 0.17 268.89C0.17 207.62 0.17 146.34 0.17 85.07C0.17 76.72 0.17 68.38 0.17 60.04C2.03 52.62 0.42 45.28 8.19 40.68C13.35 37.62 19.62 37.71 24.78 40.7C29.99 43.72 34.19 48.88 38.4 53.1C44.05 58.78 49.79 64.38 55.48 70.02C59.82 74.33 65.76 78.66 67.8 84.64C71.97 96.88 61.18 108.84 48.71 106.6C42.4 105.47 39.6 99.88 34.5 96.98C34.5 149.32 34.5 201.67 34.5 254.02C38.84 251.52 42.27 246.88 45.75 243.25C51.77 236.95 57.97 230.81 64.09 224.61C83.8 204.65 103.6 184.77 123.41 164.91C132.73 155.58 142.79 140.76 157.6 149.95C159.87 151.36 161.57 153.36 162.82 155.72C165.7 161.11 165.14 167.49 162.07 172.64C159.82 176.43 156.07 179.4 153.01 182.51C146.88 188.72 140.71 194.87 134.58 201.08C109.41 226.57 84.17 251.98 58.88 277.35C51.39 284.87 43.99 292.48 36.43 299.92C32.31 303.98 28.39 308.97 23.07 311.52C15.78 315 5.88 311.43 2.54 303.98C0.95 300.42 1.12 296.55 0.17 292.97Z" fill="#CEAB8D" fill-rule="evenodd" stroke="#CEAB8D" stroke-width="0.25" stroke-linejoin="round"/>
</svg>
