<?xml version="1.0" encoding="UTF-8"?>
<svg xmlns="http://www.w3.org/2000/svg" viewBox="280 118 1136 210" width="1136" height="210">
<path d="M1184.85 120.81C1187.82 120.81 1190.8 120.81 1193.77 120.81C1193.77 150.13 1193.77 179.45 1193.77 208.77C1186.37 211.68 1177.43 212.74 1169.5 212.91C1157.8 213.14 1144.99 212.26 1137.08 202.37C1122.56 184.22 1132.13 154.69 1154.56 149.17C1168.09 145.84 1173.13 149.7 1184.85 153.8C1184.85 142.81 1184.85 131.81 1184.85 120.81ZM992.89 137.5C991.76 139.7 990.63 141.89 989.5 144.09C985.62 143.07 982.24 140.54 978.37 139.18C971.09 136.62 963.08 136.41 955.6 138.22C930.87 144.23 921.74 180.23 941.71 196.81C951.25 204.74 964.57 206.06 976.41 203.76C981.49 202.76 985.73 199.7 990.5 198.05C991.33 200.53 992.15 203.02 992.98 205.5C976.86 217.7 945.66 215.82 932.07 200.42C924.73 192.1 921.77 181.41 921.84 170.5C922.05 142.12 947.84 125.22 974.56 129.72C981.15 130.83 987.8 133.01 992.89 137.5ZM293.5 130.86C303.17 154.83 312.83 178.8 322.5 202.76C323.3 202.42 323.74 202.63 324.41 201.95C326.26 200.09 330.03 187.92 331.26 184.73C338.13 166.83 344.39 148.22 352.5 130.86C355.6 130.86 358.7 130.86 361.79 130.86C350.7 157.79 339.6 184.72 328.5 211.65C324.5 211.65 320.5 211.65 316.5 211.65C305.52 184.72 294.55 157.79 283.57 130.86C286.88 130.86 290.19 130.86 293.5 130.86ZM664.28 135C664.3 139.5 664.33 144 664.35 148.5C664.56 148.6 664.78 148.7 665 148.8C673.23 149.03 681.45 149.27 689.68 149.5C689.62 151.93 689.56 154.35 689.5 156.78C681.33 156.89 673.17 156.99 665 157.1C664.89 168.79 664.78 180.47 664.67 192.16C665.83 209.39 680.31 205.03 691.5 201.33C692.31 203.72 693.12 206.11 693.93 208.5C690.2 210.65 686.48 211.96 682.21 212.57C679.04 213.02 675.74 213.1 672.56 212.69C655.16 210.44 655.46 195.42 655.47 181.5C655.47 173.53 655.87 165.43 655.21 157.5C651.95 156.83 648.69 156.17 645.44 155.5C645.53 149.84 649.63 150.84 653 147.49C656.41 144.1 658.83 138.6 661.34 134.5C662.32 134.67 663.3 134.83 664.28 135ZM421.5 182.62C404.17 182.62 386.83 182.62 369.5 182.62C370.85 207.8 398.47 207.99 416.5 200.9C417.33 203.44 418.17 205.97 419 208.5C394.72 219.27 360.01 212.42 360.21 180.5C360.24 175.8 361.28 170.97 363.18 166.67C374.3 141.48 419.88 140.2 422.68 171.55C423.02 175.45 422.58 178.89 421.5 182.62ZM494.51 211.64C491.81 211.64 489.12 211.64 486.43 211.64C484.57 198.44 487.18 184.77 485.88 171.5C485.11 163.67 480.74 157 472.5 156.03C469.02 155.63 465.22 155.74 461.78 156.4C455.8 157.55 446 163.33 444.3 169.72C443.36 173.27 444.1 177.84 444.1 181.5C444.1 191.36 445.09 201.88 443.63 211.6C440.81 211.6 437.99 211.6 435.17 211.6C435.17 190.88 435.17 170.16 435.17 149.44C437.62 149.44 440.06 149.44 442.5 149.44C443.17 152.75 443.83 156.06 444.5 159.37C455.55 145.63 482.46 142.38 491.7 159.79C495.83 167.59 494.98 176.99 494.98 185.5C494.98 194.09 495.78 203.17 494.51 211.64ZM564.05 152.5C562.87 154.63 561.68 156.77 560.5 158.9C548.75 155.5 534.52 153.19 524.11 161.59C510.84 172.29 515.42 196.55 530.76 202.69C542.47 207.38 551.24 202.92 562.5 200.99C563.34 203.16 564.17 205.33 565.01 207.5C560.33 210.43 554.98 211.58 549.57 212.31C528.13 215.19 507.88 205.34 507.45 181.44C507.04 159.29 525.09 147.59 545.5 148.06C551.68 148.2 558.89 148.88 564.05 152.5ZM641.86 205.5C641.86 207.62 641.86 209.74 641.86 211.86C631.92 214.28 628.89 212.49 626.5 202.8C623 205.11 620.05 207.88 616.1 209.57C605.18 214.22 586.41 216.04 579.66 203.79C576.14 197.39 576.28 185.05 582.72 180.21C585.59 178.05 591.05 177.66 594.5 177.02C598.55 176.28 603.06 174.87 606.5 177.69C607.16 177.08 608.04 175.82 608.83 175.44C612.06 173.83 620.42 174.71 624.5 174.12C624.83 171.91 625.02 169.79 624.78 167.52C622.82 149.11 595.72 156.95 584.5 160.28C583.66 158.02 582.82 155.76 581.98 153.5C586.81 150.47 592.78 149.4 598.36 148.63C614.19 146.45 632.27 148.22 633.58 167.62C634.12 175.52 633.68 183.58 633.69 191.5C633.69 194.84 632.96 199.61 634.98 202.5C636.57 204.79 639.36 204.96 641.86 205.5ZM698.63 183C698.63 181.33 698.63 179.67 698.64 178C699.29 171.88 700.9 166.19 704.64 161.17C723.12 136.32 767.61 147.96 767.53 180.5C767.45 212.74 724.1 224.47 705.08 200.37C701.05 195.28 699.34 189.34 698.63 183ZM874.5 182.62C857.17 182.62 839.83 182.62 822.5 182.62C822.02 207.86 852.69 207.62 869.5 200.84C870.29 203.39 871.08 205.95 871.87 208.5C848 218.96 813.62 212.9 813.08 181.5C813 177.16 813.69 172.75 815.2 168.67C821.09 152.71 838.57 145.86 854.54 148.76C860.19 149.78 866.06 152.15 869.89 156.64C875.95 163.74 876.39 173.91 874.5 182.62ZM1058.36 170C1058.48 179.62 1058.6 189.24 1058.71 198.86C1059.56 203.83 1061.98 204.47 1066.57 205.5C1066.55 207.54 1066.52 209.58 1066.5 211.61C1062.34 213.06 1056.56 214.16 1053.6 209.87C1052.05 207.62 1052.13 204.93 1050.5 203.05C1040.12 212.75 1012.86 219.45 1004.51 204C1000.96 197.42 1000.96 185.91 1007.05 180.56C1009.43 178.47 1013.98 178.1 1016.98 177.49C1021.81 176.5 1026.45 174.8 1030.5 178.2C1031.08 177.44 1031.94 175.86 1032.79 175.42C1035.76 173.88 1045.07 174.94 1049.5 173.66C1049.7 170.38 1049.73 166.89 1048.74 163.71C1047.11 158.43 1041.48 156.51 1036.5 156.09C1026.96 155.27 1018.45 157.35 1009.5 160.29C1008.62 158.03 1007.73 155.76 1006.85 153.5C1017.29 146.77 1043.92 144.79 1053.3 154.19C1057.57 158.47 1058.04 164.31 1058.36 170ZM1127.02 156.5C1125.18 158.26 1123.34 160.02 1121.5 161.78C1119.36 160.38 1117.43 158.47 1115 157.51C1106.41 154.12 1097.24 157.19 1090.95 163.44C1089.28 165.11 1086.81 167.27 1086.19 169.64C1085.25 173.23 1085.98 177.8 1085.98 181.5C1085.98 191.39 1086.94 201.88 1085.52 211.65C1082.69 211.65 1079.86 211.65 1077.02 211.65C1077.02 190.87 1077.02 170.1 1077.02 149.32C1079.64 149.32 1082.26 149.32 1084.88 149.32C1084.88 152.88 1084.88 156.43 1084.88 159.99C1088.5 157.53 1091.2 153.86 1095.14 151.61C1104.66 146.16 1120.81 146.1 1127.02 156.5ZM1235.6 148.33C1247.32 146.73 1260.88 150.59 1268.4 160.13C1282.9 178.48 1273.26 206.67 1250.43 211.8C1236.52 214.93 1220.77 211.32 1212.07 199.37C1196.77 178.37 1211.34 151.64 1235.6 148.33ZM1332.5 151.88C1331.5 154.27 1330.5 156.65 1329.5 159.03C1321.15 155.97 1311.04 154.37 1302.29 156.69C1297.67 157.92 1293.41 161.1 1294.22 166.44C1295.11 172.39 1302.72 173.34 1307.44 174.24C1317.5 176.14 1332.87 177.21 1335.76 189.66C1340.6 210.48 1317.43 213.58 1302.5 212.85C1297.31 212.6 1289.4 212.18 1285.47 208.5C1286.15 206.29 1286.82 204.07 1287.5 201.86C1290.29 202.23 1292.78 203.23 1295.54 203.88C1302.58 205.54 1310.44 205.59 1317.5 204.02C1322.41 202.92 1327.74 200.28 1327.82 194.5C1327.91 187.99 1321.86 185.41 1316.41 184.24C1306.95 182.21 1293.07 182.72 1287.42 173.1C1282.64 164.95 1286.78 155.26 1294.81 151.34C1305.35 146.19 1322.19 146.36 1332.5 151.88ZM1413.83 178.9C1413.83 179.93 1413.83 180.95 1413.83 181.97C1413.21 183.98 1413.19 186.24 1412.75 188.38C1411.11 196.44 1405.45 203.84 1398.38 207.92C1375.93 220.89 1344.53 208.32 1344.57 180.5C1344.62 152.01 1378.08 139.06 1400.29 154.2C1406.21 158.23 1410.94 164.84 1412.57 171.84C1413.12 174.18 1413.08 176.67 1413.83 178.9ZM1240.5 155.5C1233.42 155.54 1225.72 158.01 1221.04 163.56C1211.34 175.07 1213.66 194.86 1227.25 202.28C1231.3 204.49 1235.93 205.29 1240.5 205.32C1244.87 205.35 1249.31 204.68 1253.27 202.78C1266.62 196.39 1270.21 177.39 1261.95 165.6C1257.07 158.63 1248.84 155.46 1240.5 155.5ZM413.98 174.5C413.99 169.71 413.42 164.3 409.81 160.71C406.41 157.33 401.1 156.2 396.5 155.96C384.1 155.3 371.49 160.97 369.89 174.5C375.67 175.48 381.64 174.59 387.5 174.95C396.04 175.48 405.47 175.96 413.98 174.5ZM725.72 156.33C709 159.96 702.28 181.21 711.53 194.96C718.31 205.03 732.28 207.58 743.28 203.73C759.71 197.97 763.59 174.76 751.9 162.62C745.37 155.84 734.54 154.42 725.72 156.33ZM866.9 174.92C866.89 170.65 866.52 166.13 864.01 162.49C860.58 157.53 854.15 156.14 848.5 155.92C835.89 155.45 824.34 161.58 822.66 174.92C837.41 174.92 852.15 174.92 866.9 174.92ZM1184.82 163.5C1169.59 151.04 1142.28 153.43 1140.04 176.5C1139.7 179.96 1139.74 183.7 1140.46 187.1C1144.64 206.76 1169.36 207.6 1184.82 202.16C1184.82 189.27 1184.82 176.39 1184.82 163.5ZM1371.73 156.33C1355.1 159.96 1348.17 181.22 1357.54 194.95C1364.4 205 1378.2 207.6 1389.27 203.72C1405.64 197.97 1409.6 174.74 1397.88 162.62C1391.33 155.85 1380.57 154.4 1371.73 156.33ZM624.85 181.1C616.67 180.88 608.56 181.61 600.5 182.86C597.36 183.34 592.47 183.37 589.84 185.36C586.74 187.71 586.5 193.05 587.03 196.49C588.02 202.76 593.86 204.91 599.5 205.01C609.25 205.19 617.62 201.92 624.85 195.5C624.85 190.7 624.85 185.9 624.85 181.1ZM1049.5 181.4C1041.36 180.32 1032.58 181.67 1024.5 182.95C1021.64 183.4 1017.17 183.51 1014.74 185.22C1010.84 187.97 1010.95 195.06 1012.53 198.97C1014.31 203.39 1019.15 204.81 1023.5 204.99C1031.56 205.34 1043.44 203.17 1048.66 196.13C1051.06 192.88 1049.73 185.28 1049.5 181.4ZM437.5 258.07C440.03 261.01 438.83 267.42 438.83 271.5C438.83 282.95 440.18 295.43 438.5 306.73C426.12 310.68 406.22 311.31 404.12 294.49C401.77 275.63 418.5 269.82 433.5 276.19C434.11 272.02 433.89 267.74 433.9 263.5C433.9 262.31 433.43 259.75 434.19 258.74C434.96 257.73 436.42 258.15 437.5 258.07ZM713.5 258.07C715.98 260.83 714.89 266.58 714.89 270.5C714.88 281.67 716.29 296.04 714.5 306.77C702.04 310.73 682.36 311.23 680.18 294.47C677.81 276.19 694.88 269.38 709.5 276.25C710.18 272.07 709.95 267.77 709.95 263.5C709.95 262.32 709.48 259.76 710.23 258.75C710.98 257.73 712.43 258.15 713.5 258.07ZM1240.5 258.07C1243.09 260.97 1241.88 267.41 1241.88 271.5C1241.88 282.63 1243.31 295.98 1241.5 306.79C1229.02 310.56 1209.33 311.36 1207.17 294.47C1204.84 276.18 1221.84 269.39 1236.5 276.24C1237.2 272.06 1236.96 267.76 1236.96 263.5C1236.96 262.32 1236.49 259.76 1237.23 258.75C1237.98 257.75 1239.44 258.15 1240.5 258.07ZM1127.5 259.23C1130.26 260.03 1130.99 260.74 1131.78 263.5C1131.02 264.61 1130.26 265.71 1129.5 266.82C1125.32 266.81 1124.18 265.68 1124.25 261.5C1125.33 260.74 1126.42 259.98 1127.5 259.23ZM385.84 307.5C381.17 311.21 379.14 306.98 376.5 303.92C369.31 309.53 351.04 313.03 350.2 299.48C349.38 286.02 367.33 288.93 376.03 287.5C376.56 277.28 370.33 276.66 361.5 277.98C358.03 278.5 354.92 281.13 353.02 277.5C356.22 271.36 374.67 271.83 379.01 277.5C383.9 283.9 379.73 294.06 381.27 301.4C382.06 305.16 384.79 303.28 385.84 307.5ZM530.81 273.45C555.62 269.72 561.49 305.04 537.42 308.71C512.08 312.58 505.95 277.19 530.81 273.45ZM590.89 325.83C588.31 325.83 585.72 325.83 583.14 325.83C580.56 324.71 577.5 324.33 575.12 322.4C569.56 317.87 571.92 310.9 576.04 306.5C571.03 301.5 573.04 297.37 576.81 292.5C575.71 290.93 575.05 289.61 574.65 287.71C571.66 273.66 587.14 273.18 596.5 273.16C598.26 273.15 606.98 272.67 607.79 273.78C608.32 274.5 607.82 274.69 608.16 275.5C606.03 277.1 603.34 276.85 600.52 277.5C607.76 284.75 602.96 295.06 593.4 296.75C588.3 297.65 584.12 295.75 579.31 295.5C576.55 298.12 575.95 302.67 580.59 303.8C588.43 305.7 596.87 302.61 604.5 306.01C605.37 307.53 606.24 309.04 606.6 310.78C609.04 322.59 598.32 322.98 590.89 325.83ZM661.9 307.5C657.88 310.59 654.78 308.25 653.5 303.96C651.04 305.05 648.82 306.77 646.2 307.63C639.06 309.97 627.62 309.9 626.37 300.3C624.52 286.12 643.23 288.98 652.08 287.5C652.71 277.19 646.29 276.71 637.5 277.98C634.06 278.48 630.97 281.15 629.08 277.5C632.13 271.37 650.71 271.89 655.03 277.46C659.95 283.8 655.82 294.01 657.33 301.33C658.11 305.13 660.81 303.31 661.9 307.5ZM752.69 273.38C777.51 270.25 782.53 305.5 758.45 308.77C732.95 312.24 727.77 276.53 752.69 273.38ZM819.5 278.1C813.61 280.19 800.71 272.96 799.27 283.5C803.78 291.21 825.64 285.65 822.31 300.62C820.52 308.71 810.3 309.29 803.5 308.91C798.84 308.66 794.77 308.89 795.41 303.5C802.08 302.58 816.95 309.37 817.81 297.5C813.02 289.23 792.9 295.38 794.7 281.5C795.73 273.63 806.31 272.73 812.46 273.31C816.4 273.68 820.31 273.47 819.5 278.1ZM899.69 307.5C895.17 311.16 892.9 307.22 890.5 303.8C883.32 309.32 864.85 313.26 864.09 299.5C863.34 285.94 881.13 289.07 889.91 287.5C890 285.84 890.23 284.2 889.88 282.55C887.81 272.89 872.69 280.41 867.5 279.17C866.74 274.24 870.33 274.45 874.46 273.75C879.89 272.83 887.63 272.39 891.98 276.5C898.29 282.46 893.59 293.95 895.14 301.45C895.86 304.96 898.84 303.73 899.69 307.5ZM944.5 277.54C942.82 278.65 945.11 278.03 943.32 278.78C942.17 279.26 939.68 278.12 938.5 277.92C932.82 276.93 925.1 276.65 924.07 283.5C928.98 292.05 949.1 284.46 947.07 300.5C945.76 310.86 925.94 310.43 919.29 306.5C919.6 305.56 919.82 303.75 920.75 303.24C922.02 302.53 925.83 304.19 927.24 304.4C932.61 305.23 940.19 305.14 942.62 299.5C941.07 287.81 918.75 296.61 919.25 282.52C919.55 274.13 930.11 272.84 936.5 273.27C939.74 273.49 945.15 273.51 944.5 277.54ZM992.5 277.31C992.07 277.83 992.06 278.51 991.3 278.76C990.13 279.16 988.62 278.29 987.48 278.06C981.64 276.9 973.06 276.27 972 283.5C976.77 292.06 997.04 284.44 994.98 300.5C993.66 310.85 973.82 310.37 967.2 306.5C967.51 305.53 967.73 303.7 968.72 303.2C970.16 302.47 974.26 304.33 975.88 304.53C980.65 305.13 986 304.64 989.77 301.5C992.7 286.81 966.73 297.67 967.16 282.5C967.39 274.09 978.16 272.83 984.5 273.28C986.29 273.41 992.09 273.58 992.75 275.69C993.17 277.03 992.39 275.9 992.5 277.31ZM1030.72 273.38C1055.44 270.16 1060.45 305.52 1036.46 308.79C1011.06 312.24 1005.65 276.64 1030.72 273.38ZM1102.48 276.5C1099.73 280.45 1096.64 277.65 1092.28 277.48C1085.52 277.21 1078.3 280.2 1077.05 287.52C1076.72 289.44 1076.7 291.56 1076.95 293.5C1078.72 307.29 1092.59 304.21 1101.81 302.5C1102.39 303.64 1103.44 304.81 1102.69 306.18C1101.55 308.25 1092.67 308.98 1090.5 308.97C1081.77 308.94 1073.24 303.73 1072.01 294.5C1070.6 283.91 1076.94 275.57 1087.26 273.61C1090.51 272.99 1101.61 272.7 1102.48 276.5ZM1188.89 307.5C1184.9 310.6 1181.8 308.23 1180.5 303.97C1178.04 305.05 1175.82 306.79 1173.2 307.63C1165.75 310.03 1153.87 309.72 1153.27 299.47C1152.48 286.04 1170.41 288.95 1179.1 287.5C1179.59 277.23 1173.35 276.69 1164.5 277.98C1161.07 278.48 1157.99 281.13 1156.06 277.5C1159.29 271.2 1178.34 271.81 1182.47 278.04C1186.74 284.46 1182.85 294.22 1184.31 301.38C1185.07 305.17 1187.79 303.32 1188.89 307.5ZM1279.69 273.37C1304.45 270.2 1309.56 305.48 1285.45 308.77C1259.98 312.25 1254.72 276.57 1279.69 273.37ZM1346.5 278.04C1340.8 280.26 1327.8 272.64 1326.25 283.5C1331.17 291.83 1352.95 284.9 1349.1 301.48C1347.38 308.9 1336.47 309.25 1330.5 308.92C1325.84 308.66 1321.77 308.9 1322.38 303.5C1329.08 302.58 1343.91 309.38 1344.79 297.5C1339.96 289.22 1319.94 295.4 1321.7 281.5C1322.7 273.61 1333.32 272.73 1339.46 273.32C1343.33 273.7 1347.31 273.47 1346.5 278.04ZM478.5 303.79C482.04 296.91 484.87 289.59 487.95 282.49C488.78 280.57 490.01 275.43 491.82 274.36C493.13 273.58 495.09 274.06 496.5 274.13C491.5 285.44 486.5 296.76 481.5 308.08C479.5 308.08 477.5 308.08 475.5 308.08C470.37 296.89 465.24 285.69 460.12 274.5C461.66 274.16 463.65 273.43 465.22 274.31C467.1 275.36 468.22 280.55 469.03 282.49C471.83 289.2 474.04 298.1 478.5 303.79ZM1126.5 274C1127.63 274.08 1129.09 273.66 1129.9 274.72C1131.03 276.18 1130.2 280.71 1130.2 282.5C1130.2 288.5 1130.21 294.5 1130.21 300.5C1130.2 302.13 1130.92 305.97 1129.91 307.34C1129.05 308.5 1127.72 308.05 1126.5 308.15C1125.4 306.57 1126.18 308.83 1125.44 307.22C1124.56 305.3 1125.29 301.59 1125.3 299.5C1125.3 293.83 1125.32 288.17 1125.31 282.5C1125.31 279.4 1124.77 276.34 1126.5 274ZM433.86 281.5C424.09 275.5 409.46 275.81 409.06 290.5C408.66 304.86 423.06 306.47 433.86 303.04C433.86 295.86 433.86 288.68 433.86 281.5ZM531.8 277.45C513.42 279.81 517.08 307.54 536.4 304.7C554.11 302.1 550.49 275.05 531.8 277.45ZM585.64 277.27C580.2 278.37 576.69 284.49 579.98 289.5C583.28 294.52 593.92 294.58 597.89 290.37C605.5 282.26 593.74 275.63 585.64 277.27ZM709.91 281.5C700.3 275.49 685.52 275.99 685.08 290.5C684.64 304.99 699.14 306.21 709.91 303.12C709.91 295.91 709.91 288.71 709.91 281.5ZM753.68 277.38C735.02 279.29 738.19 307.08 757.45 304.76C775.19 302.61 772.34 275.48 753.68 277.38ZM1031.61 277.38C1013.1 279.11 1016.18 307.21 1035.46 304.77C1053.22 302.53 1050.37 275.63 1031.61 277.38ZM1236.92 281.5C1227.29 275.49 1212.53 275.97 1212.08 290.5C1211.64 305.02 1226.14 306.21 1236.92 303.1C1236.92 295.9 1236.92 288.7 1236.92 281.5ZM1280.64 277.38C1262.08 279.12 1265.19 307.2 1284.46 304.78C1302.13 302.56 1299.41 275.63 1280.64 277.38ZM376.14 291.5C370.57 291.24 360.91 290.91 356.42 294.5C350.74 308.84 369.76 305.1 376.14 299.5C376.14 296.83 376.14 294.17 376.14 291.5ZM651.73 291.5C645.64 292.17 639.56 292.83 633.47 293.5C623.9 306.97 648.62 307.28 651.95 299.33C652.98 296.86 652.24 293.93 651.73 291.5ZM890.03 291.5C884.22 291.26 875.02 290.99 870.2 294.5C864.86 308.85 883.65 305.22 890.03 299.5C890.03 296.83 890.03 294.17 890.03 291.5ZM1178.75 291.5C1172.66 292.17 1166.58 292.84 1160.5 293.51C1150.87 307.09 1175.71 307.18 1178.94 299.33C1179.94 296.89 1179.22 293.93 1178.75 291.5ZM601.5 309.75C595.47 307.03 585.48 307.27 579.09 308.5C575.44 312.02 574.73 317.98 580.13 320.39C588.23 323.99 605.2 321.89 601.5 309.75Z" fill="#1E1E1E" fill-rule="evenodd" stroke="#1E1E1E" stroke-width="0.25" stroke-linejoin="round"/>
<path d="M664.28 135C664.52 135.17 664.76 135.33 665 135.5C665 139.93 665 144.37 665 148.8C664.78 148.7 664.56 148.6 664.35 148.5C664.33 144 664.3 139.5 664.28 135ZM665 157.1C664.89 168.79 664.78 180.47 664.67 192.16C664.78 180.47 664.89 168.79 665 157.1ZM1058.36 170C1058.48 179.62 1058.6 189.24 1058.71 198.86C1058.6 189.24 1058.48 179.62 1058.36 170ZM698.64 178C698.63 179.67 698.63 181.33 698.63 183C698.42 182.83 698.21 182.67 698 182.5C698 181.17 698 179.83 698 178.5C698.21 178.33 698.42 178.17 698.64 178Z" fill="#ffffff" fill-rule="evenodd" stroke="#ffffff" stroke-width="0.25" stroke-linejoin="round"/>
</svg>
