<?xml version="1.0" encoding="UTF-8"?>
<svg xmlns="http://www.w3.org/2000/svg" viewBox="0 0 1132 568" width="1132" height="568">
<path d="M642.5 217.6C644.16 212.92 643.24 207.44 643.26 202.5C643.29 192.83 643.25 183.17 643.24 173.5C643.23 147.83 643.18 122.17 643.28 96.5C643.31 87.92 644.72 67.16 642.5 60.09C637.39 63.41 633.13 69 628.9 73.39C623.5 78.99 617.85 84.35 612.41 89.92C592.99 109.83 573.47 129.64 553.88 149.38C544.89 158.43 533.72 174.03 519.44 164.04C517.65 162.79 516.18 161.27 515.05 159.4C505.86 144.24 526.04 129.72 535.6 120.1C566.35 89.18 597.09 58.25 627.94 27.44C637.69 17.71 654.36 -7.11 669.99 4.51C675.9 8.91 676.62 16.72 676.79 23.5C677.12 36.82 676.84 50.18 676.85 63.5C676.88 114.5 676.81 165.5 676.89 216.5C676.91 228.83 677.03 241.17 676.85 253.5C676.77 259.51 676.56 266.89 671.89 271.37C667.19 275.89 659.31 276.92 653.47 274.15C648.65 271.87 644.86 267.03 641.17 263.33C634.19 256.32 627.04 249.46 620.1 242.4C615.99 238.21 610.82 234.3 609.2 228.39C605.59 215.31 617.84 204.79 630.32 208.29C635.5 209.74 638.34 214.62 642.5 217.6ZM489.5 96.98C487.83 101.8 488.81 107.42 488.81 112.5C488.8 122.5 488.77 132.5 488.8 142.5C488.86 168.5 488.58 194.51 488.72 220.5C488.77 229.48 487.16 247.01 489.5 254.8C498.36 248.04 506.43 237.87 514.44 229.94C535.86 208.69 556.57 186.75 578.03 165.53C587.19 156.46 597.62 140.81 612.18 150.35C614.21 151.68 615.89 153.26 617.13 155.35C626.18 170.59 605.88 184.44 596.6 194.11C579.78 211.63 562.16 228.33 545.28 245.77C531.68 259.82 517.99 273.84 504.04 287.53C493.79 297.59 477.82 321.74 461.75 309.69C455.78 305.21 455.57 297.86 455.41 291C455.1 277.5 455.2 264 455.23 250.5C455.32 200.17 455.28 149.83 455.25 99.5C455.24 86.52 454.91 73.47 455.47 60.5C455.71 54.93 455.57 48.45 459.51 44.02C464.07 38.91 472.04 37.5 478.18 40.37C483.6 42.9 487.9 48.27 492.06 52.43C498.73 59.1 505.55 65.61 512.16 72.33C516.01 76.23 521.19 80.16 522.75 85.65C526.34 98.26 515.33 109.53 502.67 106.65C496.89 105.33 494.06 100.08 489.5 96.98Z" fill="#ceab8f" fill-rule="evenodd" stroke="#ceab8f" stroke-width="0.25" stroke-linejoin="round"/>
<path d="M887 454.44C884.33 454.44 881.67 454.44 879 454.45C871.11 453.78 863.74 452.31 857.6 446.92C845.29 436.08 845.17 413.14 855.52 401.04C862.31 393.11 872.3 389.73 882.5 389.84C889.64 389.92 895.27 391.97 901.5 395.26C901.78 393.8 902.05 392.33 902.33 390.86C902.33 388.91 902.33 386.96 902.33 385.01C902.58 377.51 902.82 370 903.06 362.5C905.63 362.5 908.2 362.5 910.77 362.5C910.88 391.83 911 421.17 911.11 450.5C903.49 453.37 895.07 454 887 454.44ZM639.56 415C639.58 413.33 639.59 411.67 639.6 410C642.09 384.41 661.39 369.99 686.5 370.86C694.24 371.12 705.27 373.03 710.26 379.5C709.01 381.66 707.75 383.83 706.5 385.99C701.1 383.02 695.74 379.93 689.5 379.12C666.72 376.18 648.63 389.99 648.86 413.5C648.9 417.71 649.42 421.67 650.83 425.64C657.04 443.1 676.17 448.84 693.21 445.6C698.38 444.62 702.94 442.14 707.5 439.67C708.5 442.05 709.5 444.44 710.5 446.82C705.39 452.04 696.64 453.55 689.64 454.4C661.59 457.81 642.1 443.14 639.56 415ZM10.5 372.26C14.31 377.02 15.96 384.62 18.23 390.31C22.78 401.73 27.33 413.15 31.9 424.56C33.31 428.1 37.34 441.07 39.37 443.19C40.11 443.96 40.59 443.81 41.5 444.26C51.17 420.26 60.83 396.25 70.5 372.25C73.31 372.25 76.12 372.25 78.93 372.25C68.12 399.22 57.31 426.18 46.5 453.15C42.5 453.15 38.5 453.15 34.5 453.15C23.47 426.18 12.45 399.22 1.42 372.26C4.45 372.26 7.47 372.26 10.5 372.26ZM380.5 375.88C381.88 377.39 380.76 374.97 381.8 376.71C382.93 378.61 382.07 388.28 382.1 390.97C390.56 390.97 399.02 390.97 407.47 390.97C407.47 393.5 407.47 396.03 407.47 398.56C399.15 398.56 390.82 398.56 382.5 398.56C381.15 404.7 382.04 412.1 382.04 418.5C382.05 428.74 379.38 445.04 393.5 446.28C395.82 446.49 398.19 446.37 400.5 446.01C403.39 445.56 405.91 444.3 408.5 442.99C409.69 445.16 410.87 447.33 412.06 449.5C408.12 452.63 403.47 453.86 398.5 454.23C394.88 454.5 391.13 454.57 387.55 453.85C379.26 452.18 375.01 445.43 373.69 437.59C371.57 424.96 375.4 411.24 372.5 398.87C369.25 398.27 365.5 398.5 363.05 396.5C363.91 392.08 367.64 392.04 370.64 389.15C374.62 385.31 375.79 378.77 380.5 375.88ZM139.5 424.1C122.06 424.1 104.61 424.1 87.17 424.1C88.87 449.51 116.07 449.87 134.5 442.37C135.37 444.75 136.25 447.12 137.12 449.5C131.93 453.24 124.74 453.89 118.5 454.23C109.59 454.72 100.6 454.29 92.61 449.92C78.85 442.39 74.91 423.63 80.3 409.76C88.11 389.69 121.66 381.28 135.42 399.1C140.8 406.05 141.12 415.83 139.5 424.1ZM212.5 453.1C209.83 453.1 207.17 453.1 204.5 453.1C201.78 442.7 204.59 425.94 203.74 414.5C203 404.61 197.76 397.81 187.47 397.37C184.3 397.23 180.87 397.66 177.81 398.4C172.16 399.77 164.18 404.84 162.28 410.74C161.16 414.2 161.94 418.89 161.94 422.5C161.94 432.46 163.16 443.37 161.5 453.15C158.66 453.15 155.83 453.15 152.99 453.15C152.99 432.48 152.99 411.82 152.99 391.15C155.61 391.15 158.23 391.15 160.85 391.15C160.85 394.6 160.85 398.05 160.85 401.5C163.22 400.43 164.54 397.84 166.64 396.1C170.29 393.09 175.01 391.13 179.65 390.3C183.17 389.67 186.95 389.69 190.5 389.95C215.27 391.78 212.71 416.29 212.71 434.5C212.71 440.68 213.03 446.95 212.5 453.1ZM281.7 394.5C280.63 396.35 279.57 398.21 278.5 400.06C275.42 399.76 272.61 398.53 269.5 398.07C255.59 395.99 238.95 398.85 235.06 414.53C234.34 417.46 234.01 420.48 234.16 423.5C235.36 447.5 261.84 450.38 279.5 442.19C280.45 444.63 281.41 447.06 282.36 449.5C259.25 460.87 226.07 453.62 225.12 423.5C224.41 400.81 242.93 389.45 263.5 389.88C269.22 390 277.48 390.16 281.7 394.5ZM359.68 447.5C359.68 449.29 359.68 451.08 359.68 452.87C355.93 454.73 349.71 455.66 346.77 451.73C345.14 449.55 345 446.74 343.5 444.75C330.52 456.06 296.96 461.98 295.14 437.5C294.78 432.69 296.24 424.2 300.97 421.5C302.81 420.46 305.37 420.23 307.41 419.75C319 417 330.9 417.62 342.5 415.53C342.67 411.73 342.9 407.01 340.95 403.59C334.81 392.82 311.64 398.5 302.5 401.92C301.64 399.78 300.78 397.64 299.92 395.5C304.09 391.74 311.93 390.46 317.5 390.04C330.29 389.07 348.3 389.66 350.86 405.53C352.21 413.89 351.22 423.05 351.23 431.5C351.24 435.35 350.47 440.49 352.54 443.97C353.95 446.36 357.29 446.73 359.68 447.5ZM443.62 390.28C456.68 388.05 471.39 392.09 479.4 403.13C492.35 421 483.11 446.62 462.42 452.85C448.96 456.9 432.14 453.74 423.1 442.36C407.43 422.63 419.36 394.41 443.62 390.28ZM592.29 424.1C574.89 424.1 557.5 424.1 540.1 424.1C540.96 450.28 569.41 448.82 587.5 442.5C588.34 444.84 589.17 447.17 590.01 449.5C584.78 453.14 577.73 453.88 571.5 454.22C549.58 455.41 530.98 447.18 530.92 422.5C530.91 418.06 531.56 413.83 533.2 409.69C542.97 385.13 588.67 380.55 592.89 410.51C593.52 414.99 593.32 419.72 592.29 424.1ZM784.21 447.5C784.21 449.5 784.21 451.5 784.21 453.5C772.41 456.08 772.67 453.74 768.68 444.5C765.51 446.53 762.89 449.19 759.34 450.83C746.74 456.63 722.65 457.56 720.14 439.47C719.4 434.16 720.35 425.27 725.31 421.83C728.22 419.8 733.06 419.51 736.47 418.84C746.57 416.86 757.2 417.62 767.16 415.5C767.19 412.32 767.47 408.87 766.65 405.77C765.18 400.21 759.58 398.37 754.5 397.86C748.16 397.22 741.75 397.62 735.57 399.21C732.47 400 729.65 401.32 726.5 401.51C725.87 399.5 725.24 397.5 724.6 395.5C728.94 391.98 735.93 390.65 741.5 390.1C755.09 388.76 773.47 389.78 775.81 406.54C777.02 415.25 776.05 424.71 776.04 433.5C776.04 436.97 775.31 441.84 777.83 444.68C779.32 446.38 782.17 446.82 784.21 447.5ZM844.49 397.5C842.82 399.35 841.16 401.2 839.5 403.05C835.75 401.37 832.88 398.55 828.5 398.03C820.14 397.04 806.17 402.23 803.88 411.53C802.98 415.18 803.71 419.76 803.72 423.5C803.73 433.3 804.32 443.33 803.5 453.09C800.61 453.09 797.72 453.09 794.83 453.09C794.83 432.44 794.83 411.79 794.83 391.14C797.45 391.14 800.07 391.14 802.7 391.14C802.7 394.71 802.7 398.27 802.7 401.84C806.46 398.82 809.52 394.85 814.12 392.61C824.04 387.77 837.25 388.66 844.49 397.5ZM950.78 390.38C963.14 388.02 977.8 391.5 985.93 401.61C1000.05 419.16 991.91 446.31 970.37 452.81C956.05 457.13 938.64 453.41 929.64 440.83C915.7 421.33 928.15 394.69 950.78 390.38ZM1027 454.45C1025.33 454.45 1023.67 454.45 1022 454.45C1015.53 454.03 1008.9 453.7 1003.12 450.5C1003.91 448.05 1004.71 445.6 1005.5 443.15C1015.57 446.21 1025.58 448.13 1036.07 445.53C1040.83 444.35 1045.79 441.3 1045.51 435.71C1045.16 428.66 1038.54 426.82 1032.75 425.64C1021.09 423.26 1000.47 422.23 1003.3 404.65C1006.22 386.59 1038.03 387.33 1050.19 393.5C1049.3 395.82 1048.4 398.13 1047.5 400.45C1038.73 398.34 1030.61 396.47 1021.5 397.99C1017.83 398.6 1013.01 400.39 1012.11 404.55C1011.23 408.66 1012.98 412.04 1016.73 413.73C1026.02 417.9 1037.1 415.91 1045.93 421.56C1059.28 430.11 1055.86 447.04 1041.53 452.09C1036.78 453.76 1031.97 454.06 1027 454.45ZM1089.64 390.3C1102.74 388.07 1117.33 392.11 1125.4 403.13C1138.43 420.93 1129.02 446.62 1108.43 452.85C1094.99 456.91 1078.11 453.73 1069.08 442.36C1053.43 422.63 1065.41 394.42 1089.64 390.3ZM88.13 416.03C98.75 416.21 109.38 416.38 120 416.55C123.83 416.5 127.67 416.46 131.5 416.41C133.87 396.83 110.03 392.91 96.78 401.33C93.29 403.55 85.72 411.86 88.13 416.03ZM446.65 397.35C428.55 399.9 418.85 420.72 429.06 436.38C434.86 445.27 446.2 448.42 456.29 446.65C475.33 443.32 483.04 418.77 469.94 404.57C464.26 398.41 454.71 396.22 446.65 397.35ZM541.11 416.22C550.07 416.33 559.04 416.45 568 416.56C573.5 416.38 579 416.2 584.5 416.02C585.73 397.04 563.94 393.05 550.35 400.86C545.93 403.4 538.65 410.97 541.11 416.22ZM902.33 412.08C902.33 410.42 902.33 408.76 902.33 407.1C900.96 399.99 888.79 397.32 882.5 397.35C868.14 397.4 858.41 407.03 857.52 421.12C856.28 440.7 871.64 447.2 888.5 446.26C893.25 446 898.21 445.78 902.43 443.5C902.4 433.03 902.37 422.55 902.33 412.08ZM954.59 397.33C934.77 399.87 925.52 423.49 938.6 438.88C944.54 445.88 954.65 448.07 963.44 446.75C982.84 443.86 990.77 419.14 977.74 404.74C972.09 398.5 962.7 396.29 954.59 397.33ZM1092.63 397.34C1074.56 399.85 1064.81 420.78 1075.07 436.38C1080.79 445.09 1091.49 448.15 1101.45 446.78C1120.99 444.08 1128.78 419.89 1116.42 405.1C1110.9 398.5 1100.84 396.19 1092.63 397.34ZM342.18 436.86C342.31 432.41 342.44 427.95 342.57 423.5C342.38 423.4 342.19 423.3 342 423.2C334.01 421.68 324.44 423.32 316.44 424.76C313.88 425.22 310.39 425.31 308.07 426.57C304.92 428.3 304.11 433.82 304.52 436.98C306.7 453.56 335.32 446.47 342.18 436.86ZM767.1 422.68C758.46 422.91 749.88 423.16 741.37 424.72C738.67 425.22 734.7 425.27 732.41 426.89C729.43 429 728.87 434.17 729.31 437.41C730.17 443.83 735.55 446.47 741.5 446.77C751.29 447.25 759.67 443.47 767.1 437.5C767.1 432.56 767.1 427.62 767.1 422.68ZM152.5 499.89C153.42 500.23 154.08 499.76 154.73 500.72C155.58 501.96 154.96 509.62 154.96 511.5C154.96 523.51 156.37 536.59 154.5 548.42C141.67 552.4 122.14 552.63 120.21 535.47C118.24 517.94 135.47 510.75 149.5 518C150.29 513.94 149.99 509.67 150 505.5C150 504.31 149.52 501.73 150.23 500.7C150.9 499.73 151.57 500.23 152.5 499.89ZM428.5 499.89C429.34 500.19 429.5 499.66 430.27 500.17C431.51 501 430.99 509.67 430.99 511.5C430.98 523.54 432.4 536.64 430.52 548.5C417.44 552.11 398.26 553.18 396.3 535.44C394.38 518.16 411.52 510.5 425.5 517.98C426.15 514.91 425.38 502.02 426.27 500.72C426.92 499.77 427.59 500.23 428.5 499.89ZM955.5 499.86C956.43 500.21 957.09 499.73 957.76 500.7C958.62 501.96 957.99 509.61 957.99 511.5C957.99 523.5 959.43 536.64 957.5 548.44C944.47 552.29 925.24 553.07 923.27 535.46C921.33 518.23 938.57 510.46 952.5 517.97C953.12 514.95 952.38 501.96 953.24 500.7C953.91 499.72 954.56 500.21 955.5 499.86ZM842.5 501.18C846.57 501.27 847.75 502.44 847.53 506.5C844.44 509.93 841.23 508.67 840.09 504.5C840.89 503.39 841.7 502.29 842.5 501.18ZM101.95 549.5C97.35 551.52 94.85 549.94 93.5 545.26C91.44 546.45 89.58 547.95 87.36 548.85C79.79 551.93 67.34 551.61 66.47 541.23C65.24 526.61 84.3 532.17 92.5 528.59C92.58 515.02 79.08 519.14 70.39 521.5C68.01 516.47 71.51 516.33 75.9 515.47C81.29 514.41 89.21 514.02 93.79 517.69C100.84 523.35 95.55 535.67 97.45 543.21C98.5 547.38 101.25 544.18 101.95 549.5ZM245.68 515.29C253.15 513.89 261.44 516.21 265.97 522.58C272.81 532.21 267.73 546.68 256.29 549.71C249.33 551.55 240.71 550.38 235.65 544.83C226.27 534.54 232.16 517.81 245.68 515.29ZM324.29 516.5C321.49 519.11 320.22 518.05 316.36 518.5C317.64 520.08 319.3 521.56 319.86 523.58C322.48 532.99 313.88 538.69 305.5 538.8C301.82 538.85 298.45 537.15 294.92 537.5C292.1 540.7 293.02 544.84 297.58 545.71C305.24 547.16 312.99 544.77 320.5 547.56C330.87 564.73 305.71 571.13 293.85 565.59C286.31 562.07 286.84 553.69 292.09 548.5C287.87 542.73 287.93 539.7 293.01 534.5C292.1 532.85 291.23 531.39 290.92 529.5C288.52 515.07 302.43 514.93 312.5 514.95C315.25 514.96 320.94 513.85 323.36 515.2C323.82 515.46 323.88 516.16 324.29 516.5ZM378.01 547.5C376.02 553.92 370.9 549.74 369.5 545.22C362.1 550.11 343.8 555.66 342.62 541.5C341.39 526.8 359.8 531.9 368.5 528.73C369.32 515.06 354.85 519.19 346.47 521.5C344.06 516.39 347.46 516.38 351.96 515.48C357.43 514.39 365.96 513.94 370.39 518.11C377.1 524.43 370.75 536.1 373.72 543.67C374.51 545.69 376.54 546.23 378.01 547.5ZM466.77 515.37C473.52 513.99 481.79 515.61 486.36 521.15C494.18 530.61 490.1 546.06 478.13 549.56C470.09 551.91 460.61 549.98 455.58 542.9C448.15 532.46 454.65 517.86 466.77 515.37ZM536.49 517.5C536.09 518.44 535.92 519.79 534.98 520.39C533.79 521.14 530.66 519.56 529.32 519.35C524.3 518.58 517.99 518.49 515.4 523.5C516.96 534.28 539.93 525.53 538.62 541.34C537.88 550.21 526.24 550.99 519.46 550.39C515.33 550.02 512.2 550.58 511.14 546.5C511.74 545.85 511.53 545.26 512.58 544.97C514.07 544.56 516.02 545.72 517.51 545.94C523.86 546.91 535.23 547.06 533.5 538.08C527.58 531.68 509.74 536.35 510.86 523.5C511.79 512.84 530.14 513.14 536.49 517.5ZM615.88 547.5C614.18 553.65 608.73 550.12 607.5 545.44C604.59 546.61 602.27 548.71 599.13 549.57C591.92 551.52 581.13 550.93 580.3 541.44C580.07 538.82 580.79 534.35 583.17 532.69C587.8 529.47 599.9 529.79 605.5 529.43C605.9 527.93 606.33 527.15 606.22 525.5C605.41 513.65 588.45 522.08 584.6 521C583.66 520.74 583.72 520.09 583.15 519.5C583.46 518.48 582.85 518.71 583.34 517.81C584.13 516.37 587.82 515.95 589.23 515.63C594.92 514.34 604.51 513.71 608.75 518.73C614.36 525.38 608.55 536.78 611.54 544.01C612.27 545.8 614.53 546.36 615.88 547.5ZM660.99 518.5C659.01 521.81 656.81 519.67 653.45 519.25C648.49 518.64 642.7 518.65 640.18 523.5C642 534.28 663.35 525.53 663.34 540.5C663.33 549.95 651.57 551 644.43 550.41C640.02 550.05 636.09 550.65 636.23 545.5C643.21 543.89 654.03 550.09 658.79 541.5C657.79 529.16 634.03 538.37 635.5 523.75C636.32 515.55 646.12 514.74 652.5 514.98C656.03 515.12 659.63 515.21 660.99 518.5ZM708.91 518.5C706.93 521.82 704.79 519.71 701.44 519.28C696.45 518.63 690.61 518.62 688.08 523.5C690.09 534.48 712.39 525.32 711.16 541.5C710.51 550.15 699.04 550.98 692.39 550.41C687.95 550.03 684.03 550.69 684.11 545.5C690.81 544.1 705.25 550.62 706.74 539.5C702.52 530.48 684.66 537.48 683.4 525.29C682.44 516 693.9 514.71 700.5 514.98C703.98 515.13 707.61 515.22 708.91 518.5ZM744.76 515.37C751.31 514.05 759.25 515.48 763.89 520.63C772.29 529.93 768.36 546.04 756.1 549.56C748.05 551.87 738.64 549.99 733.58 542.9C726.17 532.52 732.6 517.83 744.76 515.37ZM818.95 517.5C816.12 522.6 813.54 519.2 808.5 519.09C801.56 518.93 794.25 521.88 793.12 529.52C791.77 538.58 797.22 545.85 806.5 546.06C810.44 546.15 814.94 543.95 818.5 544.75C818.67 545.68 819.28 546.34 818.97 547.35C818.21 549.9 808.76 550.55 806.48 550.55C797.52 550.55 789.09 544.88 788.06 535.5C786.68 522.82 796.57 514.83 808.5 514.95C812.24 514.99 815.84 515.37 818.95 517.5ZM905.01 547.5C903.01 554.03 897.89 549.69 896.5 545.18C888.57 550.48 870.85 555.34 869.52 540.91C868.25 527.08 887.54 531.54 895.5 528.71C895.97 519.48 889.71 518.25 881.75 519.4C878.4 519.88 874.75 522.33 872.39 519.5C873.09 516.21 875.01 516.4 878.27 515.65C883.96 514.34 893.59 513.68 897.9 518.64C903.75 525.38 897.68 536.18 900.68 543.73C901.46 545.69 903.58 546.28 905.01 547.5ZM993.79 515.38C1000.54 513.98 1008.79 515.63 1013.36 521.16C1021.11 530.54 1017.13 546.13 1005.16 549.59C997.11 551.91 987.62 549.99 982.57 542.92C975.11 532.49 981.66 517.89 993.79 515.38ZM1063.56 517.5C1063.19 518.41 1062.89 519.86 1062 520.41C1060.79 521.15 1057.67 519.57 1056.31 519.36C1051.33 518.6 1044.96 518.47 1042.43 523.5C1043.82 534.25 1066.99 525.56 1065.63 541.34C1064.86 550.22 1053.14 551.07 1046.34 550.4C1042.35 550.01 1039.21 550.52 1038.12 546.5C1038.74 545.86 1038.53 545.28 1039.58 544.99C1041.07 544.58 1043.02 545.72 1044.5 545.94C1050.96 546.9 1062.1 547.07 1060.5 538.05C1054.49 531.73 1036.78 536.31 1037.86 523.5C1038.7 513.65 1057.76 512.56 1063.56 517.5ZM177.5 515.73C183.43 515.87 183.23 519.47 185.24 524.28C188.11 531.17 190.45 539.04 194.5 545.3C198.52 539.05 201.03 531.34 203.98 524.49C204.84 522.49 206.02 517.52 207.83 516.3C209.22 515.36 210.96 515.8 212.5 515.87C207.5 527.2 202.5 538.53 197.5 549.86C195.5 549.86 193.5 549.86 191.5 549.86C187.31 542.52 184.36 534.28 180.92 526.55C179.33 522.99 177.14 519.46 177.5 515.73ZM844.5 515.67C846.15 517.38 844.69 514.61 846.01 516.63C847.02 518.19 846.37 521.71 846.37 523.5C846.37 529.5 846.37 535.5 846.38 541.5C846.38 543.4 847.17 547.67 845.97 549.26C844.87 550.72 845.9 548.78 844.5 549.96C840.31 548.78 841.61 546.51 841.61 542.5C841.61 536.17 841.62 529.83 841.62 523.5C841.63 519.33 840.38 517.25 844.5 515.67ZM149.94 522.89C140.01 517.05 125.34 517.84 125.14 532.5C124.95 547.06 139.29 547.25 149.94 544.96C149.94 537.6 149.94 530.25 149.94 522.89ZM246.63 519.28C236.89 521.01 232.74 533.23 238.45 541.06C242.27 546.31 249.33 547.46 255.28 545.72C264.19 543.11 266.57 531.05 261.42 524.09C258.1 519.6 251.89 518.34 246.63 519.28ZM300.68 519.24C295.48 520.69 292.88 527.62 296.6 531.9C300.42 536.3 310.46 536.13 314.27 531.8C315.57 530.33 316.03 528.41 315.95 526.5C315.62 518.93 306.53 517.6 300.68 519.24ZM425.97 522.88C415.89 517.07 401.43 517.69 401.22 532.5C401 547.1 415.32 547.19 425.97 544.98C425.97 537.61 425.97 530.24 425.97 522.88ZM467.75 519.35C458.04 521.36 454.24 533.66 460.06 541.37C463.77 546.28 470.72 547.33 476.37 545.79C485.01 543.43 488.1 532.23 483.48 525.01C480.16 519.81 473.55 518.15 467.75 519.35ZM745.74 519.36C736.01 521.34 732.29 533.66 738.06 541.38C741.89 546.5 749.35 547.49 755.11 545.56C763.25 542.82 765.89 531.95 761.48 525.02C758.14 519.79 751.57 518.17 745.74 519.36ZM952.96 522.91C942.93 516.92 928.44 517.85 928.22 532.5C928 547.2 942.29 547.08 952.96 544.97C952.96 537.62 952.96 530.27 952.96 522.91ZM994.73 519.34C985.03 521.3 981.26 533.73 987.05 541.4C990.89 546.48 998.36 547.5 1004.1 545.55C1012.21 542.8 1014.95 531.96 1010.46 525.04C1007.07 519.82 1000.62 518.16 994.73 519.34ZM92.54 533.5C86.18 532.56 79.17 533.42 73.07 535.5C71.2 539.01 71.03 541.7 73.5 544.94C79.95 547.72 87.95 545.88 92.54 540.62C92.54 538.24 92.54 535.87 92.54 533.5ZM368.5 533.34C362.96 532.77 352.68 532.44 348.38 536.5C347.61 539.84 347.44 542.05 349.5 544.9C354.06 546.92 365.91 546.5 368.37 540.85C369.28 538.76 368.69 535.54 368.5 533.34ZM606.26 533.5C600.67 532.55 590.65 532.62 586.14 536.5C581.59 551.28 599.53 545.92 606.26 541.5C606.26 538.83 606.26 536.17 606.26 533.5ZM895.5 533.36C889.93 532.77 879.7 532.46 875.36 536.5C874.54 539.87 874.41 542.03 876.5 544.9C881.02 546.92 892.92 546.49 895.37 540.86C896.28 538.77 895.69 535.56 895.5 533.36ZM317.5 551.05C312.39 549.07 300 549.07 294.78 550.5C291.33 554.32 291.31 559.77 296.46 562.11C304.19 565.63 322.77 562.89 317.5 551.05Z" fill="#373536" fill-rule="evenodd" stroke="#373536" stroke-width="0.25" stroke-linejoin="round"/>
<path d="M902.33 385.01C902.33 386.96 902.33 388.91 902.33 390.86C902.33 388.91 902.33 386.96 902.33 385.01ZM902.33 407.1C902.33 408.76 902.33 410.42 902.33 412.08C902.33 410.42 902.33 408.76 902.33 407.1ZM639.6 410C639.59 411.67 639.58 413.33 639.56 415C639.38 414.83 639.19 414.67 639 414.5C639 413.17 639 411.83 639 410.5C639.2 410.33 639.4 410.17 639.6 410ZM88.13 416.03C98.75 416.21 109.38 416.38 120 416.55C109.38 416.38 98.75 416.21 88.13 416.03ZM541.11 416.22C550.07 416.33 559.04 416.45 568 416.56C559.04 416.45 550.07 416.33 541.11 416.22ZM342 423.2C342.19 423.3 342.38 423.4 342.57 423.5C342.44 427.95 342.31 432.41 342.18 436.86C342.12 432.31 342.06 427.76 342 423.2ZM879 454.45C881.67 454.44 884.33 454.44 887 454.44C886.83 454.63 886.67 454.81 886.5 455C884.17 455 881.83 455 879.5 455C879.33 454.82 879.17 454.63 879 454.45ZM1022 454.45C1023.67 454.45 1025.33 454.45 1027 454.45C1026.83 454.63 1026.67 454.82 1026.5 455C1025.17 455 1023.83 455 1022.5 455C1022.33 454.82 1022.17 454.63 1022 454.45Z" fill="#ffffff" fill-rule="evenodd" stroke="#ffffff" stroke-width="0.25" stroke-linejoin="round"/>
</svg>